<?xml version="1.0" encoding="UTF-8" standalone="yes"?>
<svg xmlns="http://www.w3.org/2000/svg" style="display: none;">
  <symbol viewBox="0 0 85 98" fill="none" xmlns="http://www.w3.org/2000/svg" id="24_7_icon">
    <path d="M37.5057 2.87905C40.5968 1.09712 44.4032 1.09713 47.4943 2.87906L79.9943 21.6143C83.0915 23.3998 85 26.7029 85 30.2779V67.7221C85 71.2971 83.0915 74.6002 79.9943 76.3857L47.4943 95.1209C44.4032 96.9029 40.5968 96.9029 37.5057 95.1209L5.00571 76.3856C1.90848 74.6002 0 71.2971 0 67.7221V30.2779C0 26.7029 1.90848 23.3998 5.00572 21.6144L37.5057 2.87905Z" fill="#FF8502"/>
    <g clip-path="url(#clip0_482_967)">
      <g filter="url(#filter0_i_482_967)">
        <path d="M30 53.2176V52.0027C30 51.2981 30.1513 50.6879 30.4541 50.172C30.7626 49.656 31.1555 49.2509 31.6329 48.9569C32.1102 48.6629 32.6401 48.4105 33.2221 48.1997C33.8044 47.9889 34.3864 47.8197 34.9685 47.6922C35.5565 47.5589 36.0891 47.4257 36.5665 47.2926C37.6493 46.9819 38.1907 46.5409 38.1907 45.9694C38.1907 45.3481 38.0218 44.9237 37.6843 44.6962C37.3466 44.4687 36.776 44.355 35.9728 44.355H35.3527C34.2292 44.355 33.49 44.6962 33.1348 45.3786C32.8729 45.9001 32.4799 46.1608 31.956 46.1608H30.9169C30.6316 46.1608 30.4104 46.0637 30.2532 45.8696C30.096 45.6753 30.0174 45.4646 30.0174 45.2371C30.0174 44.6047 30.2707 44.036 30.7772 43.5312C31.2894 43.0208 31.924 42.6379 32.6807 42.3828C33.4375 42.1276 34.2264 42 35.0472 42H36.2259C38.7816 42 40.3999 42.6769 41.081 44.0304C41.3488 44.5631 41.4827 45.1816 41.4827 45.8863C41.4827 46.5908 41.3313 47.19 41.0286 47.6837C40.7259 48.1774 40.3359 48.5714 39.8585 48.8654C39.3811 49.1539 38.8486 49.4036 38.2605 49.6144C37.6784 49.8252 37.0962 49.9999 36.5141 50.1386C35.9319 50.2717 35.4022 50.3995 34.9248 50.5215C33.8364 50.8099 33.292 51.1843 33.292 51.6448H40.5396C40.7783 51.6448 40.9761 51.7225 41.1333 51.8779C41.2963 52.0332 41.3778 52.2191 41.3778 52.4355V53.2176C41.3778 53.434 41.2935 53.6199 41.1246 53.7752C40.9616 53.925 40.7666 54 40.5396 54H30.847C30.62 54 30.422 53.925 30.2532 53.7752C30.0844 53.6199 30 53.434 30 53.2176ZM41.9367 51.1206V50.1304C41.9367 49.642 42.1173 49.2093 42.4781 48.8322L48.2501 42.5825C48.5701 42.2442 49.0243 42.0721 49.6122 42.0666H52.3454C52.5841 42.0666 52.7849 42.1442 52.9479 42.2996C53.111 42.455 53.1923 42.6408 53.1923 42.8572V49.5479H54.1529C54.3916 49.5479 54.5924 49.6255 54.7555 49.7809C54.9185 49.9361 55 50.1219 55 50.3383V51.1206C55 51.337 54.9155 51.5229 54.7466 51.6782C54.578 51.828 54.3799 51.9028 54.1529 51.9028H53.1923V53.2176C53.1923 53.434 53.108 53.6199 52.9391 53.7752C52.7702 53.925 52.5724 54 52.3454 54H50.7212C50.4942 54 50.2991 53.9279 50.1361 53.7836C49.9789 53.6338 49.9004 53.4507 49.9004 53.2343V51.9028H42.7838C42.5566 51.9028 42.3588 51.828 42.1899 51.6782C42.0211 51.5229 41.9367 51.337 41.9367 51.1206ZM45.4469 49.5479H49.9004V44.7296L45.4469 49.5479Z" fill="white"/>
      </g>
      <g filter="url(#filter1_i_482_967)">
        <path d="M62 54.0544V53.53C62 53.3849 62.0612 53.2603 62.1835 53.1562C62.3058 53.052 62.4492 53 62.6139 53H69.3924C69.5569 53 69.6982 53.052 69.8163 53.1562C69.9386 53.2603 70 53.3849 70 53.53V54.0433C70 54.2998 69.8712 54.6383 69.6138 55.0586L66.291 60.4757C66.0759 60.8252 65.7995 61 65.4619 61H64.1645C63.9957 61 63.8754 60.9516 63.8037 60.855C63.7361 60.7545 63.7361 60.6467 63.8037 60.5314L67.4619 54.5789H62.6139C62.4409 54.5789 62.2953 54.5285 62.1772 54.4282C62.0589 54.3239 62 54.1995 62 54.0544Z" fill="white"/>
      </g>
      <g filter="url(#filter2_i_482_967)">
        <path d="M63.7322 67.455C57.2046 73.8529 48.8538 76.8805 42.4976 76.9955C36.1415 77.1104 29.9362 75.0203 24.9019 71.069C19.8677 67.1178 16.3043 61.5406 14.7977 55.2543C13.2911 48.968 13.931 42.3472 16.6121 36.4802C19.2932 30.6132 23.856 25.8495 29.5501 22.9724C35.2443 20.0953 41.7307 19.276 47.9432 20.6493C54.1554 22.0226 59.7236 25.5067 63.7322 30.5287C67.7409 35.5507 69.9513 41.8117 70 48.2821H64.8136L59.2269 48.3659C59.197 44.3851 57.8372 40.5331 55.3709 37.4433C52.9046 34.3535 49.4787 32.2099 45.6567 31.365C41.8345 30.5201 37.8436 31.0241 34.3403 32.7943C30.8371 34.5644 28.0299 37.4953 26.3804 41.1049C24.7308 44.7144 24.3372 48.788 25.2641 52.6555C26.191 56.5231 28.3834 59.9545 31.4807 62.3856C34.5779 64.8165 38.3958 66.1024 42.3064 66.0316C46.217 65.961 50.9187 66.0316 56.7634 59.4857L60.182 63.5266L63.7322 67.455Z" fill="white"/>
      </g>
      <g filter="url(#filter3_d_482_967)">
        <path d="M32 38.9749V35.2406H34.5202V35.8944H32.8437V36.6737H33.179C33.5553 36.6737 33.8626 36.7225 34.1011 36.8201C34.3432 36.9177 34.522 37.052 34.6375 37.2228C34.753 37.3937 34.8108 37.5889 34.8108 37.8086C34.8108 38.0526 34.753 38.2619 34.6375 38.4362C34.522 38.6106 34.3432 38.7448 34.1011 38.8389C33.8589 38.9296 33.546 38.9749 33.1623 38.9749H32ZM33.1288 38.3264C33.3858 38.3264 33.587 38.2881 33.7323 38.2114C33.8813 38.1347 33.9558 38.0004 33.9558 37.8086C33.9558 37.6761 33.9185 37.575 33.844 37.5053C33.7732 37.4355 33.6707 37.3884 33.5367 37.364C33.4062 37.3361 33.2479 37.3222 33.0617 37.3222H32.8437V38.3264H33.1288ZM36.7537 36.0669C37.0367 36.0669 37.279 36.1175 37.4801 36.2186C37.6849 36.3197 37.8433 36.4662 37.9551 36.658C38.0669 36.8497 38.1227 37.0851 38.1227 37.364V37.7406H36.1557C36.1631 37.9603 36.2321 38.133 36.3624 38.2584C36.4966 38.384 36.681 38.4466 36.9157 38.4466C37.1131 38.4466 37.2919 38.4293 37.4521 38.3944C37.6124 38.3561 37.7781 38.2985 37.9494 38.2218V38.8233C37.8005 38.893 37.6421 38.9435 37.4745 38.9749C37.3106 39.0098 37.1112 39.0273 36.8766 39.0273C36.5711 39.0273 36.301 38.9749 36.0664 38.8703C35.8315 38.7622 35.6473 38.6002 35.5131 38.384C35.3789 38.1678 35.312 37.8958 35.312 37.568C35.312 37.2333 35.3715 36.9561 35.4907 36.7364C35.6138 36.5133 35.7832 36.3459 35.9993 36.2343C36.2154 36.1227 36.4667 36.0669 36.7537 36.0669ZM36.7592 36.6214C36.5991 36.6214 36.4649 36.6702 36.3568 36.7678C36.2527 36.8654 36.1911 37.0171 36.1724 37.2228H37.3403C37.3403 37.1078 37.3181 37.0049 37.2734 36.9142C37.2322 36.8236 37.169 36.7521 37.0834 36.6998C36.9976 36.6475 36.8895 36.6214 36.7592 36.6214ZM39.9098 36.0669C40.1296 36.0669 40.3345 36.0948 40.5244 36.1506C40.7181 36.2029 40.8727 36.2849 40.9882 36.3965C41.1076 36.508 41.1671 36.651 41.1671 36.8253C41.1671 36.9962 41.1113 37.1322 40.9995 37.2333C40.8914 37.3344 40.7443 37.4076 40.558 37.453V37.4791C40.6883 37.507 40.8058 37.5471 40.91 37.5994C41.0143 37.6482 41.0962 37.7162 41.1559 37.8034C41.2193 37.8871 41.2508 38.0004 41.2508 38.1434C41.2508 38.3002 41.1969 38.4466 41.0888 38.5826C40.9845 38.7152 40.8206 38.8233 40.5971 38.9069C40.3773 38.9872 40.0942 39.0273 39.7478 39.0273C39.5838 39.0273 39.4292 39.0203 39.2839 39.0063C39.1386 38.9924 39.0064 38.9731 38.8872 38.9489C38.7681 38.9209 38.6637 38.8878 38.5744 38.8495V38.2062C38.701 38.2619 38.8555 38.3125 39.0381 38.3578C39.2244 38.4031 39.4218 38.4258 39.6303 38.4258C39.7832 38.4258 39.9191 38.4154 40.0383 38.3944C40.1613 38.3734 40.2581 38.3385 40.3289 38.2898C40.4034 38.241 40.4407 38.1765 40.4407 38.0964C40.4407 38.0196 40.409 37.9568 40.3456 37.908C40.2824 37.8557 40.1873 37.8173 40.0607 37.7929C39.9341 37.7685 39.7719 37.7563 39.5745 37.7563H39.2503V37.2176H39.5578C39.8335 37.2176 40.0457 37.1967 40.1947 37.1548C40.3474 37.113 40.4238 37.0345 40.4238 36.9195C40.4238 36.8288 40.3754 36.7608 40.2787 36.7155C40.1817 36.6667 40.0234 36.6423 39.8036 36.6423C39.6583 36.6423 39.5 36.658 39.3286 36.6893C39.1573 36.7207 38.9953 36.7661 38.8426 36.8253L38.5966 36.2814C38.7718 36.2186 38.9636 36.1681 39.1721 36.1297C39.3808 36.0879 39.6266 36.0669 39.9098 36.0669ZM46.037 36.8672C46.037 37.0206 45.9849 37.1513 45.8805 37.2594C45.7801 37.3675 45.6292 37.4373 45.4279 37.4687V37.4896C45.6403 37.514 45.8097 37.582 45.9365 37.6935C46.0668 37.8051 46.132 37.9481 46.132 38.1224C46.132 38.2445 46.1059 38.3578 46.0538 38.4624C46.0054 38.567 45.9272 38.6576 45.8192 38.7344C45.7111 38.8111 45.5714 38.8703 45.4001 38.9123C45.2323 38.9541 45.0275 38.9749 44.7853 38.9749H43.3325V36.1193H44.7853C45.0238 36.1193 45.2361 36.1437 45.4223 36.1925C45.6123 36.2378 45.7613 36.3145 45.8694 36.4226C45.9812 36.5307 46.037 36.6789 46.037 36.8672ZM45.2715 38.0806C45.2715 37.969 45.2249 37.8888 45.1317 37.84C45.0387 37.7877 44.8989 37.7615 44.7126 37.7615H44.1651V38.4362H44.7295C44.8859 38.4362 45.0144 38.41 45.115 38.3578C45.2194 38.3019 45.2715 38.2096 45.2715 38.0806ZM45.1932 36.9299C45.1932 36.8393 45.156 36.773 45.0815 36.7312C45.007 36.6893 44.897 36.6684 44.7517 36.6684H44.1651V37.2333H44.6568C44.832 37.2333 44.9641 37.2106 45.0535 37.1653C45.1467 37.1165 45.1932 37.038 45.1932 36.9299ZM47.6514 37.249C47.6514 37.3082 47.6476 37.3815 47.6402 37.4687C47.6365 37.5558 47.631 37.6447 47.6236 37.7354C47.6198 37.826 47.6141 37.9062 47.6067 37.976C47.5993 38.0457 47.5937 38.0944 47.59 38.1224L48.9981 36.1193H49.9985V38.9749H49.1937V37.8348C49.1937 37.7406 49.1974 37.6377 49.205 37.5262C49.2124 37.4111 49.2198 37.3048 49.2272 37.2071C49.2383 37.106 49.2459 37.0293 49.2496 36.977L47.8471 38.9749H46.8467V36.1193H47.6514V37.249ZM51.4944 37.5157L50.5109 36.1193H51.4553L52.0477 37.0293L52.6454 36.1193H53.5898L52.5952 37.5157L53.6347 38.9749H52.6903L52.0477 37.9969L51.4051 38.9749H50.4607L51.4944 37.5157ZM54.9316 36.1193V38.9749H54.099V36.1193H54.9316ZM54.5182 35C54.6411 35 54.7473 35.0279 54.8367 35.0837C54.926 35.136 54.9708 35.2354 54.9708 35.3818C54.9708 35.5248 54.926 35.6241 54.8367 35.6799C54.7473 35.7357 54.6411 35.7636 54.5182 35.7636C54.3914 35.7636 54.2834 35.7357 54.194 35.6799C54.1084 35.6241 54.0656 35.5248 54.0656 35.3818C54.0656 35.2354 54.1084 35.136 54.194 35.0837C54.2834 35.0279 54.3914 35 54.5182 35ZM58.5453 36.1193V38.4048H58.9924V40H58.2436V38.9749H56.1929V40H55.4441V38.4048H55.7011C55.8351 38.2131 55.9488 37.9951 56.042 37.7511C56.135 37.5035 56.2095 37.2403 56.2655 36.9613C56.3213 36.6824 56.3623 36.4017 56.3884 36.1193H58.5453ZM57.0868 36.705C57.0572 36.9142 57.0199 37.1182 56.975 37.317C56.9304 37.5122 56.8746 37.7005 56.8075 37.8818C56.7441 38.0632 56.6659 38.2374 56.5728 38.4048H57.7127V36.705H57.0868ZM60.3449 36.1193V37.2176H61.5072V36.1193H62.3398V38.9749H61.5072V37.7982H60.3449V38.9749H59.5123V36.1193H60.3449ZM64.0169 37.249C64.0169 37.3082 64.0132 37.3815 64.0058 37.4687C64.0021 37.5558 63.9965 37.6447 63.9891 37.7354C63.9852 37.826 63.9796 37.9062 63.9722 37.976C63.9648 38.0457 63.9592 38.0944 63.9555 38.1224L65.3636 36.1193H66.3638V38.9749H65.5592V37.8348C65.5592 37.7406 65.5629 37.6377 65.5703 37.5262C65.5779 37.4111 65.5853 37.3048 65.5927 37.2071C65.6039 37.106 65.6113 37.0293 65.6152 36.977L64.2124 38.9749H63.2123V36.1193H64.0169V37.249ZM67.8599 37.5157L66.8765 36.1193H67.8208L68.413 37.0293L69.011 36.1193H69.9553L68.9607 37.5157L70 38.9749H69.0556L68.413 37.9969L67.7704 38.9749H66.8261L67.8599 37.5157Z" fill="white"/>
      </g>
    </g>
    <defs>
      <filter id="filter0_i_482_967" x="30" y="42" width="25.1" height="12.7" filterUnits="userSpaceOnUse" color-interpolation-filters="sRGB">
        <feFlood flood-opacity="0" result="BackgroundImageFix"/>
        <feBlend mode="normal" in="SourceGraphic" in2="BackgroundImageFix" result="shape"/>
        <feBlend mode="normal" in2="shape" result="effect1_innerShadow_482_967"/>
        <feColorMatrix in="SourceAlpha" type="matrix" values="0 0 0 0 0 0 0 0 0 0 0 0 0 0 0 0 0 0 127 0" result="hardAlpha"/>
        <feColorMatrix type="matrix" values="0 0 0 0 0 0 0 0 0 0 0 0 0 0 0 0 0 0 0.7 0"/>
        <feOffset dx="0.1" dy="0.7"/>
        <feGaussianBlur stdDeviation="0.55"/>
        <feComposite in2="hardAlpha" operator="arithmetic" k2="-1" k3="1"/>
      </filter>
      <filter id="filter1_i_482_967" x="62" y="53" width="8.1" height="8.7" filterUnits="userSpaceOnUse" color-interpolation-filters="sRGB">
        <feFlood flood-opacity="0" result="BackgroundImageFix"/>
        <feBlend mode="normal" in="SourceGraphic" in2="BackgroundImageFix" result="shape"/>
        <feBlend mode="normal" in2="shape" result="effect1_innerShadow_482_967"/>
        <feColorMatrix in="SourceAlpha" type="matrix" values="0 0 0 0 0 0 0 0 0 0 0 0 0 0 0 0 0 0 127 0" result="hardAlpha"/>
        <feColorMatrix type="matrix" values="0 0 0 0 0 0 0 0 0 0 0 0 0 0 0 0 0 0 0.7 0"/>
        <feOffset dx="0.1" dy="0.7"/>
        <feGaussianBlur stdDeviation="0.5"/>
        <feComposite in2="hardAlpha" operator="arithmetic" k2="-1" k3="1"/>
      </filter>
      <filter id="filter2_i_482_967" x="14" y="20" width="56.1" height="57.7" filterUnits="userSpaceOnUse" color-interpolation-filters="sRGB">
        <feFlood flood-opacity="0" result="BackgroundImageFix"/>
        <feBlend mode="normal" in="SourceGraphic" in2="BackgroundImageFix" result="shape"/>
        <feBlend mode="normal" in2="shape" result="effect1_innerShadow_482_967"/>
        <feColorMatrix in="SourceAlpha" type="matrix" values="0 0 0 0 0 0 0 0 0 0 0 0 0 0 0 0 0 0 127 0" result="hardAlpha"/>
        <feColorMatrix type="matrix" values="0 0 0 0 0 0 0 0 0 0 0 0 0 0 0 0 0 0 0.7 0"/>
        <feOffset dx="0.1" dy="0.7"/>
        <feGaussianBlur stdDeviation="0.55"/>
        <feComposite in2="hardAlpha" operator="arithmetic" k2="-1" k3="1"/>
      </filter>
      <filter id="filter3_d_482_967" x="31.95" y="35" width="38.5" height="5.75" filterUnits="userSpaceOnUse" color-interpolation-filters="sRGB">
        <feFlood flood-opacity="0" result="BackgroundImageFix"/>
        <feColorMatrix in="SourceAlpha" type="matrix" values="0 0 0 0 0 0 0 0 0 0 0 0 0 0 0 0 0 0 127 0" result="hardAlpha"/>
        <feColorMatrix type="matrix" values="0 0 0 0 0 0 0 0 0 0 0 0 0 0 0 0 0 0 0.7 0"/>
        <feOffset dx="0.2" dy="0.5"/>
        <feGaussianBlur stdDeviation="0.125"/>
        <feComposite in2="hardAlpha" operator="out"/>
        <feBlend mode="normal" in2="BackgroundImageFix" result="effect1_dropShadow_482_967"/>
        <feBlend mode="normal" in="SourceGraphic" in2="effect1_dropShadow_482_967" result="shape"/>
      </filter>
      <clipPath id="clip0_482_967">
        <rect width="57" height="57" fill="white" transform="translate(14 20)"/>
      </clipPath>
    </defs>
  </symbol>
  <symbol viewBox="0 0 85 98" fill="none" xmlns="http://www.w3.org/2000/svg" id="proff_icon">
    <path d="M37.5057 2.87905C40.5968 1.09712 44.4032 1.09713 47.4943 2.87906L79.9943 21.6143C83.0915 23.3998 85 26.7029 85 30.2779V67.7221C85 71.2971 83.0915 74.6002 79.9943 76.3857L47.4943 95.1209C44.4032 96.9029 40.5968 96.9029 37.5057 95.1209L5.00571 76.3856C1.90848 74.6002 0 71.2971 0 67.7221V30.2779C0 26.7029 1.90848 23.3998 5.00572 21.6144L37.5057 2.87905Z" fill="#FF8502"/>
    <g filter="url(#filter0_i_482_1001)">
      <path fill-rule="evenodd" clip-rule="evenodd" d="M37.2686 20.0545C39.056 19.2521 41.0001 18.8993 42.943 19.0248C44.8944 19.1376 46.8007 19.6782 48.5373 20.6111C52.1835 22.5825 54.9784 26.2563 55.1656 31.1499C55.1763 31.4279 55.0803 31.699 54.8989 31.9034C54.7175 32.1078 54.4655 32.2289 54.1983 32.24C53.9312 32.251 53.6707 32.1512 53.4743 31.9625C53.2778 31.7737 53.1615 31.5114 53.1508 31.2334C53.0216 29.4691 52.5117 27.7579 51.6588 26.2272C50.806 24.6965 49.6324 23.3856 48.2252 22.3923C48.0915 22.3228 47.9622 22.2532 47.8241 22.1882C47.7098 22.2307 47.5887 22.2496 47.4675 22.2439C46.5492 22.2439 46.3085 23.9231 46.255 26.2145C46.2283 27.2443 46.255 28.3761 46.255 29.5311C46.255 30.4588 46.2907 31.3865 46.2907 32.0127C46.2907 32.2895 46.185 32.5549 45.9969 32.7507C45.8088 32.9464 45.5537 33.0564 45.2877 33.0564C45.0217 33.0564 44.7666 32.9464 44.5785 32.7507C44.3904 32.5549 44.2848 32.2895 44.2848 32.0127C44.2848 30.9968 44.2848 30.2732 44.258 29.5635C44.258 28.3807 44.2134 27.2443 44.258 26.1681C44.3115 24.0993 44.5478 22.346 45.2743 21.293C44.4714 21.1609 43.6617 21.0773 42.8494 21.0425C41.8885 20.9975 40.9256 21.0316 39.9699 21.1446C40.6385 22.2254 40.8614 23.9509 40.9149 25.9779C40.9416 27.0773 40.9149 28.274 40.9149 29.4986C40.9149 30.2315 40.9149 30.9783 40.9149 32.0127C40.8981 32.2708 40.7877 32.5127 40.6061 32.6894C40.4244 32.8661 40.1851 32.9644 39.9364 32.9644C39.6878 32.9644 39.4484 32.8661 39.2668 32.6894C39.0851 32.5127 38.9748 32.2708 38.958 32.0127C38.958 31.3633 38.958 30.4124 38.9937 29.4708C39.016 28.2647 39.0338 27.0912 38.9937 26.029C38.9402 23.6772 38.695 21.9378 37.7634 21.9656C37.651 21.9688 37.5391 21.95 37.4335 21.9099C35.129 23.3015 33.083 26.2934 32.0845 31.3076C32.0448 31.5783 31.9041 31.8217 31.6929 31.985C31.4818 32.1483 31.2172 32.2182 30.9567 32.1797C30.8267 32.1687 30.7001 32.1307 30.5844 32.0679C30.4687 32.0052 30.3663 31.9189 30.2832 31.8143C30.2001 31.7097 30.138 31.5887 30.1005 31.4587C30.0631 31.3286 30.0511 31.1921 30.0652 31.0571C30.8185 25.2126 33.7026 21.678 37.2641 20.0545H37.2686ZM48.5194 52.246C48.2832 52.3945 47.931 52.6125 47.6279 52.7887C47.4483 52.8999 47.2605 52.9961 47.0663 53.0763C46.3188 53.452 45.5341 53.7413 44.7261 53.9391C43.329 54.2968 41.8704 54.3063 40.4691 53.9669H40.4424C39.7892 53.8082 39.1497 53.5941 38.5301 53.3268C38.0733 53.1463 37.6268 52.9388 37.1928 52.7052C36.8184 52.5011 36.4395 52.2785 36.0651 52.028V54.3473L42.3056 56.3558L48.5194 54.5004V52.246ZM33.074 36.9156L32.6996 39.2349C32.6844 39.3195 32.6383 39.3948 32.571 39.4449C32.5037 39.495 32.4205 39.5162 32.3386 39.5039C32.2983 39.4933 32.2594 39.4778 32.2227 39.4576L31.1127 38.7154H31.0592C30.8676 38.6876 30.7294 38.6736 30.6135 38.887C30.5301 39.0496 30.4786 39.2277 30.4619 39.4112C30.431 39.7196 30.431 40.0305 30.4619 40.3389C30.5032 40.7064 30.5747 41.0696 30.6759 41.4243C30.7671 41.7614 30.888 42.089 31.037 42.403C31.174 42.7166 31.3695 42.9988 31.612 43.2333C31.6621 43.287 31.7239 43.3273 31.7922 43.3507C31.8605 43.3741 31.9333 43.38 32.0042 43.3678H32.0265C32.1913 43.3216 32.3669 43.3432 32.5169 43.4281C32.6744 43.5146 32.7941 43.6607 32.8512 43.8363V43.8595L33.0473 44.4579L33.1944 44.9218C33.7516 46.6519 34.184 47.9878 35.1557 49.166C35.5898 49.682 36.0755 50.1485 36.6044 50.5576C37.171 51.0002 37.7771 51.3854 38.4142 51.708H38.4365C38.5613 51.7729 38.6861 51.8332 38.8109 51.8889L39.2121 52.0605C39.735 52.2617 40.2733 52.4169 40.8213 52.5243C41.3458 52.6297 41.8784 52.6856 42.4126 52.6913C43.039 52.7021 43.6649 52.6462 44.2803 52.5243C44.9051 52.3905 45.5157 52.1932 46.1034 51.9352C46.2416 51.8749 46.3486 51.8193 46.4556 51.7682C47.1095 51.4406 47.7268 51.0393 48.2966 50.5715C48.8489 50.1221 49.3485 49.6068 49.7854 49.0361C50.1563 48.5426 50.4565 47.9957 50.6769 47.4127C50.923 46.7674 51.1373 46.1094 51.3188 45.4413L51.3856 45.2093C51.4792 44.8846 51.5773 44.5414 51.6843 44.1842C51.7273 44.0073 51.8322 43.8535 51.9785 43.7528C52.1247 43.6584 52.2989 43.6221 52.4688 43.6508C52.6204 43.6786 52.7987 43.558 52.9814 43.34C53.2872 42.943 53.5282 42.4964 53.6946 42.018C53.8106 41.7162 53.9059 41.4061 53.9799 41.0903C54.0523 40.7856 54.1015 40.4754 54.127 40.1626V40.1348C54.1494 39.8895 54.1494 39.6425 54.127 39.3973C54.1177 39.2363 54.0783 39.0787 54.0111 38.9334C53.9264 38.7803 53.8596 38.6968 53.7883 38.669C53.6949 38.6426 53.5964 38.6426 53.503 38.669L53.0929 38.9473C52.7437 39.2142 52.3489 39.4094 51.9295 39.5225C51.8902 39.5345 51.8491 39.5382 51.8085 39.5335C51.7679 39.5287 51.7286 39.5156 51.6929 39.4949C51.6572 39.4741 51.6258 39.4462 51.6006 39.4127C51.5754 39.3792 51.5569 39.3409 51.5461 39.2998C51.544 39.2798 51.544 39.2596 51.5461 39.2395L51.3455 36.8692C51.087 36.9481 50.824 37.027 50.5521 37.0965C45.0738 39.2581 37.6252 39.0911 33.0785 36.9388L33.074 36.9156ZM24.1322 62.0844H41.0709C41.1505 62.0844 41.2269 62.117 41.2837 62.1751C41.3404 62.2333 41.3728 62.3123 41.374 62.3952V65.1458C41.3728 65.2291 41.3405 65.3086 41.2839 65.3675C41.2273 65.4264 41.1509 65.46 41.0709 65.4612H24.1322C24.0526 65.46 23.9766 65.4262 23.9208 65.3672C23.8649 65.3082 23.8336 65.2287 23.8336 65.1458V62.3952C23.8336 62.3127 23.865 62.2337 23.921 62.1754C23.977 62.1171 24.053 62.0844 24.1322 62.0844ZM43.9014 67.7666H60.8401C60.9193 67.7666 60.9953 67.7993 61.0513 67.8576C61.1073 67.9159 61.1387 67.995 61.1387 68.0774V69.9792C61.1326 70.0595 61.0992 70.1349 61.0445 70.1918C60.9897 70.2488 60.9173 70.2836 60.8401 70.29C55.2686 71.4861 49.5899 72.0568 43.9014 71.9923C43.8214 71.9911 43.745 71.9575 43.6884 71.8986C43.6318 71.8397 43.5995 71.7602 43.5983 71.6769V68.0774C43.5995 67.9945 43.6319 67.9155 43.6886 67.8573C43.7454 67.7992 43.8218 67.7666 43.9014 67.7666ZM24.1322 67.7666H41.0709C41.1505 67.7666 41.2269 67.7992 41.2837 67.8573C41.3404 67.9155 41.3728 67.9945 41.374 68.0774V71.6769C41.3728 71.7602 41.3405 71.8397 41.2839 71.8986C41.2273 71.9575 41.1509 71.9911 41.0709 71.9923C35.3824 72.0568 29.7037 71.4861 24.1322 70.29C24.055 70.2836 23.9826 70.2488 23.9278 70.1918C23.8731 70.1349 23.8397 70.0595 23.8336 69.9792V68.0774C23.8336 67.995 23.865 67.9159 23.921 67.8576C23.977 67.7993 24.053 67.7666 24.1322 67.7666ZM43.9014 62.0844H60.8401C60.9193 62.0844 60.9953 62.1171 61.0513 62.1754C61.1073 62.2337 61.1387 62.3127 61.1387 62.3952V65.1458C61.1388 65.2287 61.1074 65.3082 61.0515 65.3672C60.9957 65.4262 60.9197 65.46 60.8401 65.4612H43.9014C43.8214 65.46 43.745 65.4264 43.6884 65.3675C43.6318 65.3086 43.5995 65.2291 43.5983 65.1458V62.3952C43.5995 62.3123 43.6319 62.2333 43.6886 62.1751C43.7454 62.117 43.8218 62.0844 43.9014 62.0844ZM55.1211 32.2956L56.855 33.3347C56.1918 34.3299 55.2918 35.129 54.2429 35.6539C54.2429 35.7606 54.2429 35.872 54.2429 35.9879L54.3677 37.4259C54.5128 37.4659 54.65 37.5318 54.7734 37.6207C54.9738 37.7679 55.1386 37.9617 55.2548 38.1866C55.4016 38.4749 55.4939 38.7898 55.5267 39.1143C55.5671 39.4966 55.5671 39.8824 55.5267 40.2647V40.2925C55.4886 40.6672 55.4275 41.0391 55.3439 41.4057C55.2567 41.7893 55.1435 42.166 55.0052 42.5329C54.7769 43.1768 54.4386 43.7723 54.0067 44.2909C53.7141 44.6509 53.3243 44.9111 52.8878 45.0377L52.7987 45.3439C52.7496 45.5062 52.6917 45.6825 52.656 45.8402C52.2103 47.4359 51.8448 48.6883 50.8998 49.936C50.6947 50.2051 50.454 50.4695 50.2401 50.7199C50.0796 50.8931 49.9146 51.0601 49.7453 51.2209C49.7499 51.2656 49.7499 51.3107 49.7453 51.3554V54.1385C49.8635 54.0719 49.9947 54.0339 50.129 54.0275C50.2633 54.0211 50.3973 54.0464 50.5209 54.1014C67.4595 61.2216 64.2145 55.4466 66.9781 70.123C68.2173 76.7051 16.385 79.0243 18.0388 70.3688C20.8648 55.5255 16.7684 61.5556 34.6476 54.1339H34.6921C34.7457 54.1112 34.8009 54.0926 34.8571 54.0782V51.2302C34.8564 51.1301 34.8794 51.0313 34.9239 50.9426L34.6476 50.6643C34.4633 50.4695 34.2895 50.2746 34.126 50.0798C33.5883 49.4149 33.1454 48.6728 32.8111 47.8765C32.4767 47.1065 32.2048 46.2669 31.9195 45.3253L31.7635 44.8336C31.404 44.7778 31.067 44.6169 30.7918 44.3698C30.3968 44.0059 30.0768 43.5625 29.8512 43.0663C29.6681 42.6727 29.519 42.2629 29.4055 41.8418C29.2814 41.4069 29.1948 40.9614 29.147 40.5105C29.0958 40.0683 29.0958 39.6214 29.147 39.1792C29.1861 38.8069 29.2984 38.4469 29.4768 38.1217C29.5805 37.9031 29.7279 37.7101 29.9092 37.5557C30.0336 37.4763 30.1689 37.4169 30.3104 37.3795L30.4218 36.1967C30.4065 35.9805 30.4065 35.7634 30.4218 35.5473C29.5334 34.9916 28.8123 34.1882 28.3401 33.228L30.1722 32.393C31.9151 37.2171 51.8537 37.7598 55.1344 32.291L55.1211 32.2956Z" fill="white"/>
    </g>
    <defs>
      <filter id="filter0_i_482_1001" x="18" y="19" width="49.1" height="57.7" filterUnits="userSpaceOnUse" color-interpolation-filters="sRGB">
        <feFlood flood-opacity="0" result="BackgroundImageFix"/>
        <feBlend mode="normal" in="SourceGraphic" in2="BackgroundImageFix" result="shape"/>
        <feBlend mode="normal" in2="shape" result="effect1_innerShadow_482_1001"/>
        <feColorMatrix in="SourceAlpha" type="matrix" values="0 0 0 0 0 0 0 0 0 0 0 0 0 0 0 0 0 0 127 0" result="hardAlpha"/>
        <feColorMatrix type="matrix" values="0 0 0 0 0 0 0 0 0 0 0 0 0 0 0 0 0 0 0.7 0"/>
        <feOffset dx="0.1" dy="0.7"/>
        <feGaussianBlur stdDeviation="0.55"/>
        <feComposite in2="hardAlpha" operator="arithmetic" k2="-1" k3="1"/>
      </filter>
    </defs>
  </symbol>
  <symbol viewBox="0 0 85 98" fill="none" xmlns="http://www.w3.org/2000/svg" id="spare_parts_icon">
    <path d="M37.5057 2.87905C40.5968 1.09712 44.4032 1.09713 47.4943 2.87906L79.9943 21.6143C83.0915 23.3998 85 26.7029 85 30.2779V67.7221C85 71.2971 83.0915 74.6002 79.9943 76.3857L47.4943 95.1209C44.4032 96.9029 40.5968 96.9029 37.5057 95.1209L5.00571 76.3856C1.90848 74.6002 0 71.2971 0 67.7221V30.2779C0 26.7029 1.90848 23.3998 5.00572 21.6144L37.5057 2.87905Z" fill="#FF8502"/>
    <g filter="url(#filter0_i_482_989)">
      <path fill-rule="evenodd" clip-rule="evenodd" d="M29.4197 21.5731C28.7178 20.7851 27.9004 20.1906 27.0169 19.8257C26.1334 19.4608 25.2022 19.3331 24.2796 19.4503C29.8623 25.3776 23.2508 33.0332 19.5782 24.1215C18.0709 28.5281 19.642 32.5868 22.7683 34.6733C24.2437 35.6595 25.0213 36.2304 25.5596 37.0245C25.8631 37.4792 26.1131 37.9899 26.3013 38.5401L27.693 42.8272H21.8352C21.7134 42.8279 21.5928 42.8599 21.4805 42.9214C21.3682 42.9828 21.2664 43.0726 21.1808 43.1854C21.0952 43.2983 21.0276 43.432 20.9818 43.579C20.936 43.7259 20.913 43.8832 20.9141 44.0418V65.27C20.9193 67.5832 21.6277 69.7998 22.8844 71.4355C24.1411 73.0712 25.844 73.9932 27.6213 74H57.5963C59.3735 73.9932 61.0765 73.0712 62.3332 71.4355C63.5899 69.7998 64.2982 67.5832 64.3035 65.27V44.0418C64.3035 43.7224 64.206 43.4161 64.0325 43.1903C63.859 42.9645 63.6237 42.8376 63.3783 42.8376H54.446L59.6579 31.419L55.9215 28.6163L49.3897 42.8376H45.2346V41.3532C45.2346 41.2874 45.2178 41.2235 45.1868 41.1715C44.9874 40.8601 44.8359 40.6525 44.7083 40.4397C44.4132 39.9934 44.2616 39.7702 44.2616 39.6248C44.2616 39.4795 44.4052 39.2356 44.6963 38.7685C44.8159 38.5764 44.9595 38.348 45.1269 38.0626C45.1603 38.0099 45.1786 37.9439 45.1788 37.8757V36.2304C45.1788 36.1547 45.1557 36.0821 45.1146 36.0286C45.0734 35.975 45.0176 35.9449 44.9595 35.9449H43.0255L43.0614 24.4796L44.2257 21.8274C44.3453 21.5879 44.409 21.3085 44.4092 21.0229V18.4278C44.4008 18.0391 44.2744 17.6706 44.0576 17.403C43.8409 17.1355 43.5514 16.9907 43.2528 17.0005H40.5332C40.385 17.0032 40.2387 17.0439 40.1025 17.1202C39.9664 17.1965 39.8432 17.307 39.7399 17.4453C39.6366 17.5836 39.5552 17.7471 39.5004 17.9264C39.4457 18.1056 39.4185 18.2972 39.4207 18.4901L39.4526 21.3655C39.4552 21.6617 39.5276 21.9497 39.6599 22.1907L40.7485 24.2201L40.7126 35.9657H38.4237C38.3946 35.9657 38.3658 35.9733 38.3389 35.9879C38.312 36.0026 38.2877 36.0241 38.2672 36.0511C38.2468 36.0782 38.2307 36.1103 38.22 36.1455C38.2092 36.1808 38.2039 36.2184 38.2044 36.2564V37.8653C38.2047 37.9345 38.2246 38.001 38.2603 38.0522C38.4477 38.3221 38.6072 38.5712 38.7467 38.7373C39.1455 39.2927 39.3369 39.5626 39.3409 39.7754C39.3449 39.9882 39.1774 40.2217 38.8664 40.7356C38.7109 40.9899 38.5194 41.3065 38.2922 41.701C38.2589 41.7513 38.2418 41.8163 38.2443 41.8826V42.848H33.0325L30.8393 36.1474C30.6147 35.5253 30.4654 34.8617 30.3966 34.1803C30.3674 33.5279 30.4049 32.8734 30.5083 32.2339C31.0387 28.1959 32.1034 24.8378 29.4197 21.5835V21.5731ZM22.7603 50.187H62.4652V45.2407H22.7603V50.187ZM62.4652 52.5901H56.9343V56.6334C56.9344 57.0662 56.8034 57.4815 56.5697 57.7895C56.3361 58.0975 56.0187 58.2732 55.6862 58.2787H51.244C50.909 58.2773 50.5881 58.1035 50.3513 57.7953C50.1145 57.487 49.981 57.0693 49.9799 56.6334V52.5901H35.6763V56.6334C35.6752 57.0693 35.5417 57.487 35.3049 57.7953C35.068 58.1035 34.7471 58.2773 34.4122 58.2787H29.9859C29.6503 58.2787 29.3284 58.1055 29.0907 57.7971C28.853 57.4887 28.7189 57.0702 28.7179 56.6334V52.5901H22.7603V65.27C22.7645 66.9468 23.2779 68.5534 24.1885 69.7396C25.099 70.9258 26.333 71.5953 27.6213 71.6021H57.5963C58.8859 71.598 60.1219 70.9297 61.0342 69.7432C61.9465 68.5568 62.461 66.9486 62.4652 65.27V52.5901ZM49.0229 26.7737C49.6569 26.1607 50.3739 25.7082 51.1363 25.4398C51.6554 25.2354 52.2008 25.1691 52.7399 25.2449C53.2791 25.3207 53.801 25.5371 54.2746 25.881L62.4014 31.9796L61.9109 33.0903L65.0013 35.4311L68 28.6838L64.9136 26.3429L64.3553 27.5679L56.2764 21.5056C55.8095 21.1114 55.2861 20.8447 54.7378 20.7216C54.1894 20.5985 53.6276 20.6215 53.0863 20.7894C51.3955 21.3811 50.0357 23.3845 49.0069 26.7737H49.0229Z" fill="white"/>
    </g>
    <defs>
      <filter id="filter0_i_482_989" x="19" y="17" width="49.1" height="57.7" filterUnits="userSpaceOnUse" color-interpolation-filters="sRGB">
        <feFlood flood-opacity="0" result="BackgroundImageFix"/>
        <feBlend mode="normal" in="SourceGraphic" in2="BackgroundImageFix" result="shape"/>
        <feBlend mode="normal" in2="shape" result="effect1_innerShadow_482_989"/>
        <feColorMatrix in="SourceAlpha" type="matrix" values="0 0 0 0 0 0 0 0 0 0 0 0 0 0 0 0 0 0 127 0" result="hardAlpha"/>
        <feColorMatrix type="matrix" values="0 0 0 0 0 0 0 0 0 0 0 0 0 0 0 0 0 0 0.7 0"/>
        <feOffset dx="0.1" dy="0.7"/>
        <feGaussianBlur stdDeviation="0.55"/>
        <feComposite in2="hardAlpha" operator="arithmetic" k2="-1" k3="1"/>
      </filter>
    </defs>
  </symbol>
  <symbol xmlns="http://www.w3.org/2000/svg" viewBox="0 0 240 240" id="telegram">
    <linearGradient id="a" x1="-683.305" x2="-693.305" y1="534.845" y2="511.512" gradientTransform="matrix(6 0 0 -6 4255 3247)" gradientUnits="userSpaceOnUse">
      <stop offset="0" stop-color="#37aee2"/>
      <stop offset="1" stop-color="#1e96c8"/>
    </linearGradient>
    <linearGradient id="b" x1="128.991" x2="153.991" y1="118.245" y2="78.245" gradientTransform="matrix(1 0 0 -1 0 242)" gradientUnits="userSpaceOnUse">
      <stop offset="0" stop-color="#eff7fc"/>
      <stop offset="1" stop-color="#fff"/>
    </linearGradient>
    <path fill="url(#a)" d="M240 120c0 66.3-53.7 120-120 120S0 186.3 0 120 53.7 0 120 0s120 53.7 120 120z"/>
    <path fill="#c8daea" d="M98 175c-3.9 0-3.2-1.5-4.6-5.2L82 132.2 152.8 88l8.3 2.2-6.9 18.8L98 175z"/>
    <path fill="#a9c9dd" d="M98 175c3 0 4.3-1.4 6-3 2.6-2.5 36-35 36-35l-20.5-5-19 12-2.5 30v1z"/>
    <path fill="url(#b)" d="M100 144.4l48.4 35.7c5.5 3 9.5 1.5 10.9-5.1L179 82.2c2-8.1-3.1-11.7-8.4-9.3L55 117.5c-7.9 3.2-7.8 7.6-1.4 9.5l29.7 9.3L152 93c3.2-2 6.2-.9 3.8 1.3L100 144.4z"/>
  </symbol>
  <symbol xmlns="http://www.w3.org/2000/svg" fill="none" viewBox="0 0 48 48" id="viber">
    <path fill="#7360F2" d="M24 0C37.2548 0 48 10.7452 48 24C48 37.2548 37.2548 48 24 48C10.7452 48 0 37.2548 0 24C0 10.7452 10.7452 0 24 0Z"/>
    <path fill="#fff" d="M24.7432 18.949C24.7555 18.7136 24.9563 18.5327 25.1917 18.545C26.0725 18.5909 26.8053 18.8575 27.3272 19.3972C27.8471 19.9347 28.102 20.6857 28.1467 21.5876C28.1584 21.8231 27.977 22.0234 27.7416 22.0351C27.5061 22.0468 27.3058 21.8654 27.2941 21.6299C27.2558 20.8579 27.044 20.3323 26.7136 19.9907C26.3852 19.6511 25.884 19.436 25.1472 19.3975C24.9118 19.3852 24.7309 19.1844 24.7432 18.949Z"/>
    <path fill="#fff" d="M24.553 16.2549C24.3179 16.2377 24.1134 16.4143 24.0962 16.6494C24.079 16.8845 24.2556 17.0891 24.4907 17.1063C26.1159 17.2252 27.3365 17.7692 28.2096 18.7222C29.0854 19.6792 29.5152 20.8721 29.4836 22.3337C29.4785 22.5694 29.6654 22.7646 29.9011 22.7697C30.1368 22.7748 30.332 22.5879 30.3371 22.3522C30.3729 20.6948 29.8789 19.2817 28.8394 18.1459L28.8392 18.1457C27.7883 16.9985 26.3455 16.3861 24.553 16.2549Z"/>
    <path fill="#fff" d="M23.3426 14.4634C23.3443 14.2277 23.5367 14.0379 23.7724 14.0395 26.2495 14.0568 28.3434 14.8814 30.0245 16.5203 31.7196 18.1728 32.558 20.4225 32.5792 23.2167 32.581 23.4524 32.3914 23.645 32.1556 23.6468 31.9199 23.6486 31.7274 23.4589 31.7256 23.2232 31.7056 20.6049 30.9267 18.592 29.4286 17.1315 27.9164 15.6574 26.0388 14.909 23.7665 14.8932 23.5308 14.8915 23.341 14.6991 23.3426 14.4634zM26.1771 26.9785C25.854 27.3765 25.254 27.3258 25.254 27.3258 20.8686 26.2063 19.695 21.7642 19.695 21.7642 19.695 21.7642 19.6423 21.1642 20.0423 20.8412L20.8347 20.2113C21.2276 19.9085 21.4783 19.1738 21.0783 18.4563 20.7715 17.9177 20.4379 17.3949 20.0788 16.8897 19.7299 16.4132 18.9172 15.4375 18.9142 15.4345 18.5223 14.9722 17.9461 14.8648 17.3385 15.1813 17.3366 15.1813 17.3341 15.1821 17.3317 15.1829 17.3294 15.1836 17.3273 15.1843 17.3258 15.1843 16.7215 15.5325 16.1766 15.9749 15.7116 16.4947 15.71 16.4979 15.7084 16.4994 15.7068 16.501 15.7054 16.5023 15.7039 16.5037 15.7025 16.5064 15.3271 16.9594 15.1123 17.4035 15.0579 17.8386 15.0466 17.9027 15.0427 17.968 15.0463 18.033 15.0442 18.2251 15.0735 18.4163 15.1328 18.5991L15.1536 18.6133C15.343 19.2857 15.8169 20.4057 16.8468 22.2731 17.4359 23.3532 18.1153 24.3815 18.8777 25.3471 19.2597 25.8311 19.6692 26.2928 20.1041 26.7299 20.1093 26.7351 20.1145 26.7403 20.1196 26.7455 20.13 26.756 20.1402 26.7663 20.1507 26.7764L20.2904 26.9162C20.7275 27.3511 21.1892 27.7606 21.6732 28.1426 22.6389 28.9051 23.6674 29.5845 24.7477 30.1735 26.6146 31.2034 27.7356 31.6773 28.407 31.8667L28.4212 31.8874C28.6039 31.947 28.7951 31.9764 28.9873 31.9745 29.0523 31.9777 29.1175 31.9736 29.1817 31.9624 29.6175 31.9107 30.0612 31.6962 30.5129 31.3188 30.5184 31.3158 30.5184 31.3127 30.5245 31.3097 31.0444 30.8446 31.4869 30.2997 31.8354 29.6955 31.8354 29.6943 31.8358 29.6925 31.8363 29.6907 31.8371 29.6879 31.838 29.6849 31.838 29.6828 32.1544 29.0752 32.0471 28.499 31.5823 28.1066 31.5817 28.1066 31.5437 28.0754 31.4796 28.0225 31.2161 27.8054 30.5102 27.2238 30.127 26.942 29.6223 26.583 29.1 26.2494 28.5619 25.9425 27.844 25.5425 27.1108 25.7931 26.807 26.1861L26.1771 26.9785z"/>
    <path fill="#fff" fill-rule="evenodd" d="M36.3879 11.2911C35.5494 10.5174 32.161 8.05764 24.6135 8.02422C24.6135 8.02422 15.7131 7.4875 11.3743 11.4673C8.95907 13.8831 8.10943 17.4178 8.01981 21.8002C7.93019 26.1825 7.81423 34.3953 15.7308 36.6222H15.7384L15.7334 40.0202C15.7334 40.0202 15.6827 41.3959 16.5886 41.6765C17.503 41.9604 18.1022 41.2792 18.8835 40.3908C19.0383 40.2147 19.2004 40.0305 19.3734 39.844C19.9476 39.2253 20.7405 38.3164 21.338 37.6217C26.7523 38.0774 30.9164 37.0359 31.3893 36.8819C31.4869 36.8503 31.6251 36.8152 31.7965 36.7716L31.7966 36.7716C33.5458 36.3268 38.7583 35.0014 39.6745 27.5228C40.713 19.0583 39.1723 13.7043 36.3879 11.2911ZM37.3054 26.9157C36.5408 33.0897 32.397 34.0539 30.9039 34.4013L30.9038 34.4013L30.9036 34.4014C30.7386 34.4397 30.606 34.4706 30.5139 34.5001C30.1205 34.6267 26.4632 35.5366 21.8641 35.2363C21.8641 35.2363 18.4372 39.3706 17.3668 40.4456C17.1997 40.6137 17.0033 40.6815 16.8721 40.6481C16.6878 40.603 16.6372 40.3848 16.6392 40.0658C16.6422 39.6101 16.6686 34.4191 16.6686 34.4191C10.193 32.6213 10.3441 26.0262 10.4298 22.283L10.4298 22.2827C10.4327 22.1549 10.4356 22.0304 10.4381 21.9095C10.514 18.2492 11.2016 15.2507 13.2442 13.2339C16.9141 9.90982 24.4743 10.4065 24.4743 10.4065C30.8587 10.4344 33.918 12.357 34.6274 13.001C36.9829 15.0178 38.1829 19.8437 37.3054 26.9137V26.9157Z" clip-rule="evenodd"/>
  </symbol>
  <symbol viewBox="0 0 85 98" fill="none" xmlns="http://www.w3.org/2000/svg" id="warranty_icon">
    <path d="M37.5057 2.87905C40.5968 1.09712 44.4032 1.09713 47.4943 2.87906L79.9943 21.6143C83.0915 23.3998 85 26.7029 85 30.2779V67.7221C85 71.2971 83.0915 74.6002 79.9943 76.3857L47.4943 95.1209C44.4032 96.9029 40.5968 96.9029 37.5057 95.1209L5.00571 76.3856C1.90848 74.6002 0 71.2971 0 67.7221V30.2779C0 26.7029 1.90848 23.3998 5.00572 21.6144L37.5057 2.87905Z" fill="#FF8502"/>
    <g filter="url(#filter0_i_482_995)">
      <path fill-rule="evenodd" clip-rule="evenodd" d="M42.4947 18.0009C43.5616 17.9831 44.6061 18.2697 45.4702 18.8173C46.6423 19.4667 47.9418 20.7424 49.5595 21.5495C51.8296 22.686 56.0409 21.1181 58.1995 23.9199C59.4566 25.5527 59.5149 26.833 59.6104 28.0947C59.6781 29.7363 60.3727 31.3107 61.5834 32.5664C64.2354 35.6234 64.7658 37.669 63.4133 39.7843C62.4851 41.2269 60.528 42.0341 60.0771 42.9479C59.1118 44.9008 60.1779 46.3666 58.8572 48.6396C58.4412 49.3886 57.8529 50.0546 57.1292 50.5957C56.4055 51.1369 55.5619 51.5416 54.6512 51.7846C53.0601 52.2485 51.4689 51.5852 50.2013 52.0537C47.9683 52.8794 46.3188 54.7859 44.5208 55.2683C43.1858 55.6319 41.7559 55.6319 40.4209 55.2683C38.6441 54.8044 36.9946 52.8794 34.7669 52.0583C33.494 51.5944 31.9028 52.2392 30.3169 51.7893C29.4046 51.5481 28.5593 51.1441 27.8344 50.6028C27.1096 50.0614 26.5209 49.3946 26.1056 48.6442C24.785 46.3713 25.8511 44.9054 24.8857 42.9525C24.4349 42.0248 22.4778 41.2316 21.5496 39.7889C20.1865 37.6644 20.7381 35.6141 23.3847 32.5711C24.5898 31.3124 25.2837 29.7398 25.3578 28.0994C25.448 26.833 25.5063 25.5527 26.7686 23.9245C28.922 21.1413 33.1333 22.6906 35.4087 21.5541C36.9999 20.747 38.3311 19.4714 39.4927 18.8266C40.3633 18.2718 41.4177 17.9817 42.4947 18.0009ZM42.203 30.0012C42.5 28.6838 44.9663 29.8945 45.1254 32.0144C45.1623 32.7692 45.091 33.525 44.9133 34.2642H48.4351C49.8989 34.3152 51.1772 35.2337 50.2755 36.7366C50.4824 37.3953 50.5142 38.1654 49.952 38.4669C50.0163 38.8653 49.9709 39.2714 49.8196 39.6514C49.6683 40.0314 49.4155 40.3744 49.0821 40.6517C49.0733 41.1231 48.9174 41.5835 48.6313 41.983C48.1593 42.5675 47.7721 42.4469 47.0401 42.4469H41.0839C40.6756 42.4687 40.2682 42.394 39.9043 42.2308C39.5404 42.0676 39.2333 41.8218 39.0153 41.5192V35.7393C40.7868 35.3218 41.7256 33.1973 42.1977 31.8057V30.0059L42.203 30.0012ZM34.8465 34.9183H37.5409C37.69 34.9183 37.833 34.9701 37.9384 35.0623C38.0438 35.1545 38.1031 35.2796 38.1031 35.41V41.9598C38.1038 42.0248 38.0897 42.0892 38.0618 42.1494C38.0339 42.2096 37.9926 42.2644 37.9403 42.3105C37.888 42.3567 37.8258 42.3933 37.7572 42.4183C37.6887 42.4433 37.6151 42.4562 37.5409 42.4562H34.8465C34.6969 42.455 34.5539 42.4021 34.4486 42.3092C34.3433 42.2162 34.2843 42.0907 34.2843 41.9598V35.41C34.2856 35.2799 34.3453 35.1556 34.4505 35.0636C34.5556 34.9717 34.6978 34.9195 34.8465 34.9183ZM36.3952 39.2647C36.5358 39.2647 36.6732 39.3012 36.7901 39.3695C36.9069 39.4378 36.998 39.5349 37.0518 39.6485C37.1056 39.762 37.1197 39.887 37.0923 40.0076C37.0649 40.1282 36.9972 40.2389 36.8978 40.3259C36.7984 40.4128 36.6717 40.472 36.5339 40.496C36.396 40.52 36.2531 40.5077 36.1232 40.4606C35.9934 40.4136 35.8824 40.3339 35.8043 40.2317C35.7262 40.1294 35.6845 40.0093 35.6845 39.8863C35.6845 39.7215 35.7594 39.5634 35.8927 39.4468C36.0259 39.3302 36.2067 39.2647 36.3952 39.2647ZM19.7993 70.4508L25.9571 69.4906L28.9963 74.2453C31.1974 76.6342 32.5976 72.7099 33.2394 71.3414L39.1002 61.6048C37.7371 61.1919 36.0982 59.9952 34.4062 58.6592C31.0383 58.7195 27.8984 58.1953 25.5912 55.6394L18.7969 67.1017L18.2028 68.2057C17.7414 69.639 17.9854 70.5853 19.794 70.4508H19.7993ZM65.1848 70.4508L59.0588 69.4906L56.0196 74.2453C53.8132 76.6342 52.413 72.7099 51.7765 71.3414L45.8839 61.6048C47.247 61.1919 48.8912 59.9952 50.5778 58.6592C53.9458 58.7195 57.0857 58.1953 59.3929 55.6394L66.1925 67.1202L66.7972 68.2057C67.2586 69.639 67.0146 70.5853 65.206 70.4508H65.1848ZM42.4947 25.112C45.131 25.1157 47.7069 25.8028 49.8969 27.0864C52.0869 28.37 53.7926 30.1926 54.7986 32.3239C55.8045 34.4551 56.0656 36.7993 55.5487 39.0602C55.0318 41.3211 53.7602 43.3973 51.8945 45.0264C50.0289 46.6554 47.653 47.7643 45.067 48.2127C42.4811 48.6612 39.8011 48.4292 37.3659 47.546C34.9307 46.6628 32.8494 45.1681 31.3852 43.2507C29.921 41.3334 29.1395 39.0794 29.1395 36.7738C29.1388 35.2406 29.4839 33.7223 30.1551 32.306C30.8262 30.8896 31.8103 29.603 33.0509 28.5197C34.2914 27.4365 35.7641 26.5779 37.3847 25.9932C39.0052 25.4084 40.7417 25.109 42.4947 25.112Z" fill="white"/>
    </g>
    <defs>
      <filter id="filter0_i_482_995" x="18" y="18" width="49.1" height="57.7" filterUnits="userSpaceOnUse" color-interpolation-filters="sRGB">
        <feFlood flood-opacity="0" result="BackgroundImageFix"/>
        <feBlend mode="normal" in="SourceGraphic" in2="BackgroundImageFix" result="shape"/>
        <feBlend mode="normal" in2="shape" result="effect1_innerShadow_482_995"/>
        <feColorMatrix in="SourceAlpha" type="matrix" values="0 0 0 0 0 0 0 0 0 0 0 0 0 0 0 0 0 0 127 0" result="hardAlpha"/>
        <feColorMatrix type="matrix" values="0 0 0 0 0 0 0 0 0 0 0 0 0 0 0 0 0 0 0.7 0"/>
        <feOffset dx="0.1" dy="0.7"/>
        <feGaussianBlur stdDeviation="0.55"/>
        <feComposite in2="hardAlpha" operator="arithmetic" k2="-1" k3="1"/>
      </filter>
    </defs>
  </symbol>
</svg>